<svg xmlns="http://www.w3.org/2000/svg" viewBox="0 0 100 100" width="100" height="100"><clipPath id="c"><circle cx="50" cy="50" r="50"/></clipPath><g clip-path="url(#c)"><rect width="100" height="100" fill="#fff"/><path d="M22 44 q10 -6 22 -4 q14 -8 30 -12 q-6 8 -10 10 q-4 10 -18 12 q-12 2 -24 -6z" fill="#D57800"/><path d="M34 70 q16 10 32 0" fill="none" stroke="#4E5B31" stroke-width="4" stroke-linecap="round"/><path d="M38 66 q-2 -4 2 -6 M46 70 q-1 -5 3 -6 M54 70 q1 -5 -3 -6 M62 66 q2 -4 -2 -6" stroke="#4E5B31" stroke-width="3" fill="none" stroke-linecap="round"/></g><circle cx="50" cy="50" r="49" fill="none" stroke="#000" stroke-opacity=".14" stroke-width="2"/></svg>
